<svg width="48" height="48" viewBox="0 0 48 48" fill="none" xmlns="http://www.w3.org/2000/svg">
  <!-- Pocket shape -->
  <path d="M8 12C8 7.58172 11.5817 4 16 4H32C36.4183 4 40 7.58172 40 12V28C40 36.8366 32.8366 44 24 44C15.1634 44 8 36.8366 8 28V12Z" 
        fill="#ffc314" stroke="#000000" stroke-width="2"/>
  <!-- Pocket opening -->
  <path d="M12 12H36" stroke="#000000" stroke-width="2" stroke-linecap="round"/>
  <!-- Check mark -->
  <path d="M16 24L20 28L32 16" stroke="#000000" stroke-width="3" stroke-linecap="round" stroke-linejoin="round"/>
  <!-- Inner pocket detail -->
  <path d="M14 14C14 12.8954 14.8954 12 16 12H32C33.1046 12 34 12.8954 34 14V26C34 32.0751 29.0751 37 23 37C16.9249 37 12 32.0751 12 26V16" 
        fill="rgba(0,0,0,0.1)" stroke="rgba(0,0,0,0.2)" stroke-width="1"/>
</svg>